<svg width="60" height="60" viewBox="0 0 60 60" fill="none" xmlns="http://www.w3.org/2000/svg">
<rect width="60" height="60" rx="30" fill="#171717"/>
<path fill-rule="evenodd" clip-rule="evenodd" d="M18 30C18 30.5523 18.4477 31 19 31L41 31C41.5523 31 42 30.5523 42 30C42 29.4477 41.5523 29 41 29L19 29C18.4477 29 18 29.4477 18 30Z" fill="white"/>
<path fill-rule="evenodd" clip-rule="evenodd" d="M18.2929 29.2929C17.9024 29.6834 17.9024 30.3166 18.2929 30.7071L27.2929 39.7071C27.6834 40.0976 28.3166 40.0976 28.7071 39.7071C29.0976 39.3166 29.0976 38.6834 28.7071 38.2929L20.4142 30L28.7071 21.7071C29.0976 21.3166 29.0976 20.6834 28.7071 20.2929C28.3166 19.9024 27.6834 19.9024 27.2929 20.2929L18.2929 29.2929Z" fill="white"/>
</svg>
