<svg width="60" height="61" viewBox="0 0 60 61" fill="none" xmlns="http://www.w3.org/2000/svg">
<rect y="0.458984" width="60" height="60" rx="30" fill="#171717"/>
<path fill-rule="evenodd" clip-rule="evenodd" d="M42 30.459C42 29.9067 41.5523 29.459 41 29.459L19 29.459C18.4477 29.459 18 29.9067 18 30.459C18 31.0113 18.4477 31.459 19 31.459L41 31.459C41.5523 31.459 42 31.0113 42 30.459Z" fill="white"/>
<path fill-rule="evenodd" clip-rule="evenodd" d="M41.7071 31.1661C42.0976 30.7756 42.0976 30.1424 41.7071 29.7519L32.7071 20.7519C32.3166 20.3614 31.6834 20.3614 31.2929 20.7519C30.9024 21.1424 30.9024 21.7756 31.2929 22.1661L39.5858 30.459L31.2929 38.7519C30.9024 39.1424 30.9024 39.7756 31.2929 40.1661C31.6834 40.5566 32.3166 40.5566 32.7071 40.1661L41.7071 31.1661Z" fill="white"/>
</svg>
